<svg xmlns="http://www.w3.org/2000/svg" width="1200" height="900" viewBox="0 0 1200 900">
<defs><linearGradient id="bg" x1="0" y1="0" x2="1" y2="1"><stop stop-color="#05070b"/><stop offset="1" stop-color="#0b1421"/></linearGradient><linearGradient id="redGlow"><stop stop-color="#ff2a2a"/><stop offset="1" stop-color="#7c0713"/></linearGradient><filter id="shadow"><feDropShadow dx="0" dy="18" stdDeviation="22" flood-color="#000" flood-opacity=".45"/></filter></defs>
<rect width="1200" height="900" fill="url(#bg)"/>
<g opacity=".16" stroke="#31405a" stroke-width="1"><path d="M0 0H1200"/><path d="M0 60H1200"/><path d="M0 120H1200"/><path d="M0 180H1200"/><path d="M0 240H1200"/><path d="M0 300H1200"/><path d="M0 360H1200"/><path d="M0 420H1200"/><path d="M0 480H1200"/><path d="M0 540H1200"/><path d="M0 600H1200"/><path d="M0 660H1200"/><path d="M0 720H1200"/><path d="M0 780H1200"/><path d="M0 840H1200"/><path d="M0 0V900"/><path d="M60 0V900"/><path d="M120 0V900"/><path d="M180 0V900"/><path d="M240 0V900"/><path d="M300 0V900"/><path d="M360 0V900"/><path d="M420 0V900"/><path d="M480 0V900"/><path d="M540 0V900"/><path d="M600 0V900"/><path d="M660 0V900"/><path d="M720 0V900"/><path d="M780 0V900"/><path d="M840 0V900"/><path d="M900 0V900"/><path d="M960 0V900"/><path d="M1020 0V900"/><path d="M1080 0V900"/><path d="M1140 0V900"/></g>
<text x="56" y="72" fill="#ffffff" font-family="Arial, Helvetica, sans-serif" font-size="38" font-weight="600" text-anchor="start">Mallijulkaisuja — miltä sisältö voi näyttää</text><text x="58" y="106" fill="#aab4c2" font-family="Arial, Helvetica, sans-serif" font-size="17" font-weight="400" text-anchor="start">Kuvitteellisia sisältöesimerkkejä paikallisille palveluyrityksille</text><text x="1130" y="66" fill="#ffffff" font-family="Arial, Helvetica, sans-serif" font-size="30" font-weight="800" text-anchor="end">VIDO</text><text x="1140" y="66" fill="#aab4c2" font-family="Arial, Helvetica, sans-serif" font-size="24" font-weight="400" text-anchor="start">Social</text><rect x="55" y="150" width="245" height="270" rx="18" fill="#172536" stroke="#263142" stroke-width="1"/><text x="71" y="175" fill="#ff2a2a" font-family="Arial, Helvetica, sans-serif" font-size="12" font-weight="800" text-anchor="start">01  TYÖMAA</text><line x1="71" y1="192" x2="113" y2="192" stroke="#ff2a2a" stroke-width="3" opacity="1"/><rect x="71" y="208" width="213" height="105" rx="12" fill="#303a47"/><circle cx="248" cy="260" r="34" fill="#ff2a2a" opacity=".18"/><text x="73" y="342" fill="#ffffff" font-family="Arial, Helvetica, sans-serif" font-size="22" font-weight="750" text-anchor="start">Kohde käynnissä:</text><text x="73" y="368" fill="#ffffff" font-family="Arial, Helvetica, sans-serif" font-size="22" font-weight="750" text-anchor="start">julkisivuremontti</text><text x="73" y="394" fill="#aab4c2" font-family="Arial, Helvetica, sans-serif" font-size="18" font-weight="500" text-anchor="start">keskustassa</text><text x="73" y="404" fill="#ffffff" font-family="Arial, Helvetica, sans-serif" font-size="12" font-weight="700" text-anchor="start">VIDO Social</text><rect x="320" y="150" width="245" height="270" rx="18" fill="#30261f" stroke="#263142" stroke-width="1"/><text x="336" y="175" fill="#ff2a2a" font-family="Arial, Helvetica, sans-serif" font-size="12" font-weight="800" text-anchor="start">02  VINKKI</text><line x1="336" y1="192" x2="378" y2="192" stroke="#ff2a2a" stroke-width="3" opacity="1"/><rect x="336" y="208" width="213" height="105" rx="12" fill="#303a47"/><circle cx="513" cy="260" r="34" fill="#ff2a2a" opacity=".18"/><text x="338" y="342" fill="#ffffff" font-family="Arial, Helvetica, sans-serif" font-size="22" font-weight="750" text-anchor="start">3 vinkkiä</text><text x="338" y="368" fill="#ffffff" font-family="Arial, Helvetica, sans-serif" font-size="22" font-weight="750" text-anchor="start">valaisimen</text><text x="338" y="394" fill="#aab4c2" font-family="Arial, Helvetica, sans-serif" font-size="18" font-weight="500" text-anchor="start">huoltoon</text><text x="338" y="404" fill="#ffffff" font-family="Arial, Helvetica, sans-serif" font-size="12" font-weight="700" text-anchor="start">VIDO Social</text><rect x="585" y="150" width="245" height="270" rx="18" fill="#22252a" stroke="#263142" stroke-width="1"/><text x="601" y="175" fill="#ff2a2a" font-family="Arial, Helvetica, sans-serif" font-size="12" font-weight="800" text-anchor="start">03  PALVELU</text><line x1="601" y1="192" x2="643" y2="192" stroke="#ff2a2a" stroke-width="3" opacity="1"/><rect x="601" y="208" width="213" height="105" rx="12" fill="#303a47"/><circle cx="778" cy="260" r="34" fill="#ff2a2a" opacity=".18"/><text x="603" y="342" fill="#ffffff" font-family="Arial, Helvetica, sans-serif" font-size="22" font-weight="750" text-anchor="start">Avaimet käteen</text><text x="603" y="368" fill="#ffffff" font-family="Arial, Helvetica, sans-serif" font-size="22" font-weight="750" text-anchor="start">kylpyhuone-</text><text x="603" y="394" fill="#aab4c2" font-family="Arial, Helvetica, sans-serif" font-size="18" font-weight="500" text-anchor="start">remontit</text><text x="603" y="404" fill="#ffffff" font-family="Arial, Helvetica, sans-serif" font-size="12" font-weight="700" text-anchor="start">VIDO Social</text><rect x="55" y="450" width="245" height="270" rx="18" fill="#17202a" stroke="#263142" stroke-width="1"/><text x="71" y="475" fill="#ff2a2a" font-family="Arial, Helvetica, sans-serif" font-size="12" font-weight="800" text-anchor="start">04  TEKIJÄ</text><line x1="71" y1="492" x2="113" y2="492" stroke="#ff2a2a" stroke-width="3" opacity="1"/><rect x="71" y="508" width="213" height="105" rx="12" fill="#303a47"/><circle cx="248" cy="560" r="34" fill="#ff2a2a" opacity=".18"/><text x="73" y="642" fill="#ffffff" font-family="Arial, Helvetica, sans-serif" font-size="22" font-weight="750" text-anchor="start">Tutustu tekijään:</text><text x="73" y="668" fill="#ffffff" font-family="Arial, Helvetica, sans-serif" font-size="22" font-weight="750" text-anchor="start">vastaava</text><text x="73" y="694" fill="#aab4c2" font-family="Arial, Helvetica, sans-serif" font-size="18" font-weight="500" text-anchor="start">mestari</text><text x="73" y="704" fill="#ffffff" font-family="Arial, Helvetica, sans-serif" font-size="12" font-weight="700" text-anchor="start">VIDO Social</text><rect x="320" y="450" width="245" height="270" rx="18" fill="#17131a" stroke="#263142" stroke-width="1"/><text x="336" y="475" fill="#ff2a2a" font-family="Arial, Helvetica, sans-serif" font-size="12" font-weight="800" text-anchor="start">05  ARVOSTELU</text><line x1="336" y1="492" x2="378" y2="492" stroke="#ff2a2a" stroke-width="3" opacity="1"/><rect x="336" y="508" width="213" height="105" rx="12" fill="#303a47"/><circle cx="513" cy="560" r="34" fill="#ff2a2a" opacity=".18"/><text x="338" y="642" fill="#ffffff" font-family="Arial, Helvetica, sans-serif" font-size="22" font-weight="750" text-anchor="start">★★★★★</text><text x="338" y="668" fill="#ffffff" font-family="Arial, Helvetica, sans-serif" font-size="22" font-weight="750" text-anchor="start">Selkeä työnjälki</text><text x="338" y="694" fill="#aab4c2" font-family="Arial, Helvetica, sans-serif" font-size="18" font-weight="500" text-anchor="start">ja hyvä viestintä</text><text x="338" y="704" fill="#ffffff" font-family="Arial, Helvetica, sans-serif" font-size="12" font-weight="700" text-anchor="start">VIDO Social</text><rect x="585" y="450" width="245" height="270" rx="18" fill="#29231f" stroke="#263142" stroke-width="1"/><text x="601" y="475" fill="#ff2a2a" font-family="Arial, Helvetica, sans-serif" font-size="12" font-weight="800" text-anchor="start">06  ENNEN / JÄLKEEN</text><line x1="601" y1="492" x2="643" y2="492" stroke="#ff2a2a" stroke-width="3" opacity="1"/><rect x="601" y="508" width="213" height="105" rx="12" fill="#303a47"/><circle cx="778" cy="560" r="34" fill="#ff2a2a" opacity=".18"/><text x="603" y="642" fill="#ffffff" font-family="Arial, Helvetica, sans-serif" font-size="22" font-weight="750" text-anchor="start">Enemmän</text><text x="603" y="668" fill="#ffffff" font-family="Arial, Helvetica, sans-serif" font-size="22" font-weight="750" text-anchor="start">toimivuutta.</text><text x="603" y="694" fill="#aab4c2" font-family="Arial, Helvetica, sans-serif" font-size="18" font-weight="500" text-anchor="start">Tyylikäs lopputulos.</text><text x="603" y="704" fill="#ffffff" font-family="Arial, Helvetica, sans-serif" font-size="12" font-weight="700" text-anchor="start">VIDO Social</text><rect x="860" y="150" width="285" height="570" rx="28" fill="#0b1018" stroke="#3a4657" stroke-width="2"/><text x="878" y="180" fill="#ff2a2a" font-family="Arial, Helvetica, sans-serif" font-size="12" font-weight="800" text-anchor="start">07  STORY (PYSTY)</text><rect x="878" y="202" width="249" height="250" rx="18" fill="#2a241f"/><circle cx="1083" cy="320" r="72" fill="#ff2a2a" opacity=".22"/><text x="885" y="500" fill="#ffffff" font-family="Arial, Helvetica, sans-serif" font-size="30" font-weight="800" text-anchor="start">Laatua.</text><text x="885" y="536" fill="#ffffff" font-family="Arial, Helvetica, sans-serif" font-size="30" font-weight="800" text-anchor="start">Luotettavuutta.</text><text x="885" y="572" fill="#ffffff" font-family="Arial, Helvetica, sans-serif" font-size="25" font-weight="800" text-anchor="start">Paikallista palvelua.</text><line x1="885" y1="595" x2="930" y2="595" stroke="#ff2a2a" stroke-width="4" opacity="1"/><text x="885" y="640" fill="#aab4c2" font-family="Arial, Helvetica, sans-serif" font-size="17" font-weight="400" text-anchor="start">Ota yhteyttä ja kerro</text><text x="885" y="665" fill="#aab4c2" font-family="Arial, Helvetica, sans-serif" font-size="17" font-weight="400" text-anchor="start">projektistasi.</text><rect x="885" y="685" width="235" height="48" rx="12" fill="#0b1018" stroke="#586477" stroke-width="1"/><text x="1002.5" y="716" fill="#ffffff" font-family="Arial, Helvetica, sans-serif" font-size="14" font-weight="800" text-anchor="middle">LÄHETÄ VIESTI  →</text><line x1="50" y1="760" x2="1150" y2="760" stroke="#344154" stroke-width="1" opacity="1"/><text x="60" y="810" fill="#ffffff" font-family="Arial, Helvetica, sans-serif" font-size="18" font-weight="600" text-anchor="start">Strategista sisältöä, joka rakentaa luottamusta ja näkyvyyttä.</text><text x="1140" y="810" fill="#aab4c2" font-family="Arial, Helvetica, sans-serif" font-size="16" font-weight="600" text-anchor="end">Instagram   Facebook   LinkedIn</text><text x="60" y="850" fill="#ff2a2a" font-family="Arial, Helvetica, sans-serif" font-size="12" font-weight="800" text-anchor="start">DEMO — ei asiakascase</text></svg>