<svg xmlns="http://www.w3.org/2000/svg" width="1200" height="900" viewBox="0 0 1200 900">
<defs><linearGradient id="bg" x1="0" y1="0" x2="1" y2="1"><stop stop-color="#05070b"/><stop offset="1" stop-color="#0b1421"/></linearGradient><linearGradient id="redGlow"><stop stop-color="#ff2a2a"/><stop offset="1" stop-color="#7c0713"/></linearGradient><filter id="shadow"><feDropShadow dx="0" dy="18" stdDeviation="22" flood-color="#000" flood-opacity=".45"/></filter></defs>
<rect width="1200" height="900" fill="url(#bg)"/>
<g opacity=".16" stroke="#31405a" stroke-width="1"><path d="M0 0H1200"/><path d="M0 60H1200"/><path d="M0 120H1200"/><path d="M0 180H1200"/><path d="M0 240H1200"/><path d="M0 300H1200"/><path d="M0 360H1200"/><path d="M0 420H1200"/><path d="M0 480H1200"/><path d="M0 540H1200"/><path d="M0 600H1200"/><path d="M0 660H1200"/><path d="M0 720H1200"/><path d="M0 780H1200"/><path d="M0 840H1200"/><path d="M0 0V900"/><path d="M60 0V900"/><path d="M120 0V900"/><path d="M180 0V900"/><path d="M240 0V900"/><path d="M300 0V900"/><path d="M360 0V900"/><path d="M420 0V900"/><path d="M480 0V900"/><path d="M540 0V900"/><path d="M600 0V900"/><path d="M660 0V900"/><path d="M720 0V900"/><path d="M780 0V900"/><path d="M840 0V900"/><path d="M900 0V900"/><path d="M960 0V900"/><path d="M1020 0V900"/><path d="M1080 0V900"/><path d="M1140 0V900"/></g>
<text x="40" y="58" fill="#ffffff" font-family="Arial, Helvetica, sans-serif" font-size="28" font-weight="800" text-anchor="start">VIDO</text><text x="40" y="82" fill="#ff2a2a" font-family="Arial, Helvetica, sans-serif" font-size="12" font-weight="800" text-anchor="start">KASVU</text><text x="225" y="62" fill="#ffffff" font-family="Arial, Helvetica, sans-serif" font-size="38" font-weight="800" text-anchor="start">VIDO Kasvu</text><rect x="430" y="27" width="145" height="38" rx="10" fill="#241018" stroke="#ff2a2a" stroke-width="1"/><text x="502" y="52" fill="#ff2a2a" font-family="Arial, Helvetica, sans-serif" font-size="12" font-weight="800" text-anchor="middle">ESIMERKKIRAPORTTI</text><text x="225" y="92" fill="#aab4c2" font-family="Arial, Helvetica, sans-serif" font-size="16" font-weight="400" text-anchor="start">Kasvumarkkinoinnin suorituskyky — Demodata</text><rect x="28" y="110" width="165" height="740" rx="20" fill="#07101a" stroke="#1f2b3d" stroke-width="1"/><rect x="42" y="120" width="137" height="42" rx="10" fill="#5b121d" stroke="#ff2a2a" stroke-width="1"/><text x="60" y="145" fill="#ffffff" font-family="Arial, Helvetica, sans-serif" font-size="14" font-weight="700" text-anchor="start">Yleiskatsaus</text><rect x="42" y="178" width="137" height="42" rx="10" fill="#07101a" stroke="#07101a" stroke-width="1"/><text x="60" y="203" fill="#aab4c2" font-family="Arial, Helvetica, sans-serif" font-size="14" font-weight="700" text-anchor="start">Kampanjat</text><rect x="42" y="236" width="137" height="42" rx="10" fill="#07101a" stroke="#07101a" stroke-width="1"/><text x="60" y="261" fill="#aab4c2" font-family="Arial, Helvetica, sans-serif" font-size="14" font-weight="700" text-anchor="start">Mainokset</text><rect x="42" y="294" width="137" height="42" rx="10" fill="#07101a" stroke="#07101a" stroke-width="1"/><text x="60" y="319" fill="#aab4c2" font-family="Arial, Helvetica, sans-serif" font-size="14" font-weight="700" text-anchor="start">Liidit</text><rect x="42" y="352" width="137" height="42" rx="10" fill="#07101a" stroke="#07101a" stroke-width="1"/><text x="60" y="377" fill="#aab4c2" font-family="Arial, Helvetica, sans-serif" font-size="14" font-weight="700" text-anchor="start">Raportit</text><rect x="42" y="410" width="137" height="42" rx="10" fill="#07101a" stroke="#07101a" stroke-width="1"/><text x="60" y="435" fill="#aab4c2" font-family="Arial, Helvetica, sans-serif" font-size="14" font-weight="700" text-anchor="start">Optimointi</text><rect x="42" y="468" width="137" height="42" rx="10" fill="#07101a" stroke="#07101a" stroke-width="1"/><text x="60" y="493" fill="#aab4c2" font-family="Arial, Helvetica, sans-serif" font-size="14" font-weight="700" text-anchor="start">Asetukset</text><rect x="220" y="120" width="215" height="135" rx="18" fill="#0c1522" stroke="#243247" stroke-width="1"/><circle cx="255" cy="155" r="24" fill="#6d1724"/><text x="290" y="152" fill="#ffffff" font-family="Arial, Helvetica, sans-serif" font-size="14" font-weight="700" text-anchor="start">Paikallinen tavoittavuus</text><text x="242" y="205" fill="#ffffff" font-family="Arial, Helvetica, sans-serif" font-size="32" font-weight="800" text-anchor="start">125 430</text><text x="242" y="235" fill="#55d985" font-family="Arial, Helvetica, sans-serif" font-size="13" font-weight="700" text-anchor="start">+28,4 %</text><polyline points="240,245 258,240 276,235 294,245 312,240 330,235 348,245 366,240 384,235 402,245" fill="none" stroke="#ff2a2a" stroke-width="2"/><rect x="455" y="120" width="215" height="135" rx="18" fill="#0c1522" stroke="#243247" stroke-width="1"/><circle cx="490" cy="155" r="24" fill="#6d1724"/><text x="525" y="152" fill="#ffffff" font-family="Arial, Helvetica, sans-serif" font-size="14" font-weight="700" text-anchor="start">Yhteydenotot</text><text x="477" y="205" fill="#ffffff" font-family="Arial, Helvetica, sans-serif" font-size="32" font-weight="800" text-anchor="start">842</text><text x="477" y="235" fill="#55d985" font-family="Arial, Helvetica, sans-serif" font-size="13" font-weight="700" text-anchor="start">+24,7 %</text><polyline points="475,245 493,240 511,235 529,245 547,240 565,235 583,245 601,240 619,235 637,245" fill="none" stroke="#ff2a2a" stroke-width="2"/><rect x="690" y="120" width="215" height="135" rx="18" fill="#0c1522" stroke="#243247" stroke-width="1"/><circle cx="725" cy="155" r="24" fill="#6d1724"/><text x="760" y="152" fill="#ffffff" font-family="Arial, Helvetica, sans-serif" font-size="14" font-weight="700" text-anchor="start">Liidit</text><text x="712" y="205" fill="#ffffff" font-family="Arial, Helvetica, sans-serif" font-size="32" font-weight="800" text-anchor="start">217</text><text x="712" y="235" fill="#55d985" font-family="Arial, Helvetica, sans-serif" font-size="13" font-weight="700" text-anchor="start">+31,6 %</text><polyline points="710,245 728,240 746,235 764,245 782,240 800,235 818,245 836,240 854,235 872,245" fill="none" stroke="#ff2a2a" stroke-width="2"/><rect x="925" y="120" width="215" height="135" rx="18" fill="#0c1522" stroke="#243247" stroke-width="1"/><circle cx="960" cy="155" r="24" fill="#6d1724"/><text x="995" y="152" fill="#ffffff" font-family="Arial, Helvetica, sans-serif" font-size="14" font-weight="700" text-anchor="start">Hinta / liidi</text><text x="947" y="205" fill="#ffffff" font-family="Arial, Helvetica, sans-serif" font-size="32" font-weight="800" text-anchor="start">23,08 €</text><text x="947" y="235" fill="#55d985" font-family="Arial, Helvetica, sans-serif" font-size="13" font-weight="700" text-anchor="start">-18,2 %</text><polyline points="945,245 963,240 981,235 999,245 1017,240 1035,235 1053,245 1071,240 1089,235 1107,245" fill="none" stroke="#ff2a2a" stroke-width="2"/><rect x="220" y="280" width="560" height="300" rx="20" fill="#0c1522" stroke="#243247" stroke-width="1"/><text x="240" y="315" fill="#ffffff" font-family="Arial, Helvetica, sans-serif" font-size="18" font-weight="750" text-anchor="start">Suorituskyky yhteenveto</text><line x1="240" y1="360" x2="760" y2="360" stroke="#263348" stroke-width="1" opacity="0.8"/><line x1="240" y1="410" x2="760" y2="410" stroke="#263348" stroke-width="1" opacity="0.8"/><line x1="240" y1="460" x2="760" y2="460" stroke="#263348" stroke-width="1" opacity="0.8"/><line x1="240" y1="510" x2="760" y2="510" stroke="#263348" stroke-width="1" opacity="0.8"/><polyline points="245,500 279,493 313,486 347,479 381,472 415,465 449,458 483,451 517,444 551,437 585,430 619,423 653,416 687,409 721,402" fill="none" stroke="#ff2a2a" stroke-width="3"/><polyline points="245,480 279,469 313,458 347,447 381,436 415,425 449,414 483,403 517,477 551,466 585,455 619,444 653,433 687,422 721,411" fill="none" stroke="#d5dbe3" stroke-width="2" opacity=".75"/><rect x="800" y="280" width="370" height="300" rx="20" fill="#0c1522" stroke="#243247" stroke-width="1"/><text x="820" y="315" fill="#ffffff" font-family="Arial, Helvetica, sans-serif" font-size="18" font-weight="750" text-anchor="start">Funnel yhteenveto</text><path d="M850 350h250l-18 38h-214z" fill="#ff2a2a" opacity="0.85"/><text x="825" y="373" fill="#ffffff" font-family="Arial, Helvetica, sans-serif" font-size="12" font-weight="700" text-anchor="start">Näyttökerrat</text><text x="1135" y="373" fill="#ffffff" font-family="Arial, Helvetica, sans-serif" font-size="13" font-weight="750" text-anchor="end">381 246</text><path d="M850 403h195l-18 38h-159z" fill="#ff2a2a" opacity="0.73"/><text x="825" y="426" fill="#ffffff" font-family="Arial, Helvetica, sans-serif" font-size="12" font-weight="700" text-anchor="start">Klikkaukset</text><text x="1135" y="426" fill="#ffffff" font-family="Arial, Helvetica, sans-serif" font-size="13" font-weight="750" text-anchor="end">6 842</text><path d="M850 456h140l-18 38h-104z" fill="#ff2a2a" opacity="0.61"/><text x="825" y="479" fill="#ffffff" font-family="Arial, Helvetica, sans-serif" font-size="12" font-weight="700" text-anchor="start">Yhteydenotot</text><text x="1135" y="479" fill="#ffffff" font-family="Arial, Helvetica, sans-serif" font-size="13" font-weight="750" text-anchor="end">842</text><path d="M850 509h85l-18 38h-49z" fill="#ff2a2a" opacity="0.49"/><text x="825" y="532" fill="#ffffff" font-family="Arial, Helvetica, sans-serif" font-size="12" font-weight="700" text-anchor="start">Liidit</text><text x="1135" y="532" fill="#ffffff" font-family="Arial, Helvetica, sans-serif" font-size="13" font-weight="750" text-anchor="end">217</text><rect x="220" y="600" width="560" height="230" rx="20" fill="#0c1522" stroke="#243247" stroke-width="1"/><text x="240" y="635" fill="#ffffff" font-family="Arial, Helvetica, sans-serif" font-size="18" font-weight="750" text-anchor="start">Viimeisimmät liidit</text><text x="245" y="670" fill="#aab4c2" font-family="Arial, Helvetica, sans-serif" font-size="11" font-weight="700" text-anchor="start">Nimi</text><text x="375" y="670" fill="#aab4c2" font-family="Arial, Helvetica, sans-serif" font-size="11" font-weight="700" text-anchor="start">Palvelu</text><text x="505" y="670" fill="#aab4c2" font-family="Arial, Helvetica, sans-serif" font-size="11" font-weight="700" text-anchor="start">Pvm</text><text x="635" y="670" fill="#aab4c2" font-family="Arial, Helvetica, sans-serif" font-size="11" font-weight="700" text-anchor="start">Status</text><line x1="240" y1="714" x2="760" y2="714" stroke="#1e2b3c" stroke-width="1" opacity="1"/><text x="245" y="704" fill="#ffffff" font-family="Arial, Helvetica, sans-serif" font-size="11" font-weight="600" text-anchor="start">Eeva Korhonen</text><text x="375" y="704" fill="#ffffff" font-family="Arial, Helvetica, sans-serif" font-size="11" font-weight="600" text-anchor="start">Remontti</text><text x="505" y="704" fill="#ffffff" font-family="Arial, Helvetica, sans-serif" font-size="11" font-weight="600" text-anchor="start">31.5.</text><text x="635" y="704" fill="#55d985" font-family="Arial, Helvetica, sans-serif" font-size="11" font-weight="600" text-anchor="start">Uusi</text><line x1="240" y1="745" x2="760" y2="745" stroke="#1e2b3c" stroke-width="1" opacity="1"/><text x="245" y="735" fill="#ffffff" font-family="Arial, Helvetica, sans-serif" font-size="11" font-weight="600" text-anchor="start">Mikko Laine</text><text x="375" y="735" fill="#ffffff" font-family="Arial, Helvetica, sans-serif" font-size="11" font-weight="600" text-anchor="start">Sähkötyöt</text><text x="505" y="735" fill="#ffffff" font-family="Arial, Helvetica, sans-serif" font-size="11" font-weight="600" text-anchor="start">31.5.</text><text x="635" y="735" fill="#55d985" font-family="Arial, Helvetica, sans-serif" font-size="11" font-weight="600" text-anchor="start">Uusi</text><line x1="240" y1="776" x2="760" y2="776" stroke="#1e2b3c" stroke-width="1" opacity="1"/><text x="245" y="766" fill="#ffffff" font-family="Arial, Helvetica, sans-serif" font-size="11" font-weight="600" text-anchor="start">Sanna Virtanen</text><text x="375" y="766" fill="#ffffff" font-family="Arial, Helvetica, sans-serif" font-size="11" font-weight="600" text-anchor="start">Huolto</text><text x="505" y="766" fill="#ffffff" font-family="Arial, Helvetica, sans-serif" font-size="11" font-weight="600" text-anchor="start">30.5.</text><text x="635" y="766" fill="#f4ad42" font-family="Arial, Helvetica, sans-serif" font-size="11" font-weight="600" text-anchor="start">Odottaa</text><line x1="240" y1="807" x2="760" y2="807" stroke="#1e2b3c" stroke-width="1" opacity="1"/><text x="245" y="797" fill="#ffffff" font-family="Arial, Helvetica, sans-serif" font-size="11" font-weight="600" text-anchor="start">Janne Salminen</text><text x="375" y="797" fill="#ffffff" font-family="Arial, Helvetica, sans-serif" font-size="11" font-weight="600" text-anchor="start">Saneeraus</text><text x="505" y="797" fill="#ffffff" font-family="Arial, Helvetica, sans-serif" font-size="11" font-weight="600" text-anchor="start">30.5.</text><text x="635" y="797" fill="#f4ad42" font-family="Arial, Helvetica, sans-serif" font-size="11" font-weight="600" text-anchor="start">Käsittely</text><rect x="800" y="600" width="370" height="230" rx="20" fill="#0c1522" stroke="#243247" stroke-width="1"/><text x="820" y="635" fill="#ffffff" font-family="Arial, Helvetica, sans-serif" font-size="18" font-weight="750" text-anchor="start">Optimointisuositukset</text><circle cx="835" cy="671" r="17" fill="#6d1724"/><text x="865" y="675" fill="#ffffff" font-family="Arial, Helvetica, sans-serif" font-size="13" font-weight="700" text-anchor="start">Mainossetit</text><text x="1125" y="675" fill="#aab4c2" font-family="Arial, Helvetica, sans-serif" font-size="11" font-weight="500" text-anchor="end">Siirrä budjettia</text><circle cx="835" cy="719" r="17" fill="#6d1724"/><text x="865" y="723" fill="#ffffff" font-family="Arial, Helvetica, sans-serif" font-size="13" font-weight="700" text-anchor="start">Kohderyhmät</text><text x="1125" y="723" fill="#aab4c2" font-family="Arial, Helvetica, sans-serif" font-size="11" font-weight="500" text-anchor="end">Laajenna yleisöä</text><circle cx="835" cy="767" r="17" fill="#6d1724"/><text x="865" y="771" fill="#ffffff" font-family="Arial, Helvetica, sans-serif" font-size="13" font-weight="700" text-anchor="start">Budjetti</text><text x="1125" y="771" fill="#aab4c2" font-family="Arial, Helvetica, sans-serif" font-size="11" font-weight="500" text-anchor="end">Skaalaa voittajia</text><rect x="220" y="845" width="950" height="32" rx="10" fill="#0b121c" stroke="#263244" stroke-width="1"/><text x="695" y="866" fill="#aab4c2" font-family="Arial, Helvetica, sans-serif" font-size="11" font-weight="500" text-anchor="middle">Tämä on demoraportti. Kaikki tiedot ovat esimerkinomaisia.</text></svg>